<?xml version="1.0" standalone="no"?><svg xmlns="http://www.w3.org/2000/svg" viewBox="0 0 1440 320"><path fill="#000b76" fill-opacity="1" d="M0,64L26.7,80C53.3,96,107,128,160,160C213.3,192,267,224,320,229.3C373.3,235,427,213,480,176C533.3,139,587,85,640,64C693.3,43,747,53,800,64C853.3,75,907,85,960,90.7C1013.3,96,1067,96,1120,90.7C1173.3,85,1227,75,1280,80C1333.3,85,1387,107,1413,117.3L1440,128L1440,320L1413.3,320C1386.7,320,1333,320,1280,320C1226.7,320,1173,320,1120,320C1066.7,320,1013,320,960,320C906.7,320,853,320,800,320C746.7,320,693,320,640,320C586.7,320,533,320,480,320C426.7,320,373,320,320,320C266.7,320,213,320,160,320C106.7,320,53,320,27,320L0,320Z"></path></svg>